<svg width="41" height="40" viewBox="0 0 41 40" fill="none" xmlns="http://www.w3.org/2000/svg">
<path d="M39.9821 11.5495L34.5163 1.11149C34.1975 0.503294 33.3722 0.00499547 32.6857 0.00499547H20.106C20.0922 0.0037466 20.0785 0.00124887 20.0647 0C20.0534 0 20.0422 0.0037466 20.0309 0.00499547H7.67634C6.98859 0.00499547 6.16203 0.502045 5.83816 1.10775L0.387379 11.3447C0.0635087 11.9517 0.128533 12.9033 0.528682 13.4628L19.2869 39.5779C19.4882 39.8576 19.7558 40 20.0222 40C20.2873 40 20.5524 39.8626 20.7562 39.5866L39.8221 13.6626C40.2285 13.1081 40.301 12.159 39.9821 11.5508V11.5495ZM36.9985 11.2436H30.2985L32.982 3.57051L36.9985 11.2436ZM22.6557 2.50398H30.7037L28.2065 9.64251L22.6557 2.50398ZM26.2858 11.2436H14.6552L20.1522 3.35571L26.2858 11.2436ZM12.4394 10.0521L9.93093 2.50398H17.7001L12.4394 10.0521ZM26.7747 13.7413L20.0522 32.9639L13.6648 13.7413H26.7747ZM17.2474 32.4531L3.8074 13.7413H11.0301L17.2474 32.4531ZM29.4244 13.7413H36.6609L22.8682 32.4968L29.4244 13.7413ZM7.53879 3.23457L10.1998 11.2436H3.27345L7.53879 3.23457Z" fill="#8B2119"/>
</svg>
