<svg width="41" height="50" viewBox="0 0 41 50" fill="none" xmlns="http://www.w3.org/2000/svg">
<path d="M6.53137 50C6.37217 50 6.21512 49.943 6.08937 49.8204C5.84382 49.5738 5.83626 49.1644 6.08209 48.9092L11.1033 43.6817C11.2174 43.5643 11.3793 43.4974 11.5502 43.4974H27.1014L38.8478 28.6804C38.6722 28.2713 38.4172 28.1269 38.2267 28.0531C37.1735 27.6321 35.2115 28.6135 34.5101 29.0532L25.5123 39.5333C25.3957 39.6774 25.2233 39.7529 25.0393 39.7529H18.8356C17.1029 39.7529 15.8525 39.2633 15.1328 38.3018C14.1331 36.978 14.5635 35.299 14.5856 35.2232C14.6595 34.9464 14.9086 34.7518 15.1911 34.7518H21.3964C22.9342 34.7518 24.0746 34.3592 24.7845 33.5757C25.2808 33.0305 25.4777 32.3761 25.5536 31.9113H8.03736L1.22494 37.7899C0.969404 38.0249 0.558706 37.991 0.341753 37.7158C0.111039 37.4461 0.150976 37.0347 0.41569 36.8118L7.40296 30.7806C7.51387 30.6801 7.66012 30.6297 7.81042 30.6297H26.2206C26.5509 30.6297 26.8234 30.8828 26.8483 31.2267C26.8547 31.2956 26.9648 33.0654 25.7031 34.4565C24.7432 35.5048 23.2974 36.0332 21.3929 36.0332H15.7386C15.7197 36.441 15.7724 37.0449 16.1321 37.5213C16.6054 38.1486 17.5155 38.4707 18.8326 38.4707H24.7502L33.6197 28.1349C33.6542 28.0845 33.7068 28.0459 33.7546 28.0156C34.0636 27.8145 36.7647 26.0928 38.6708 26.8529C39.1833 27.0527 39.8603 27.5257 40.1676 28.6294C40.2235 28.8306 40.1741 29.0524 40.0508 29.2086L27.8904 44.5402C27.7687 44.6912 27.5898 44.7782 27.399 44.7782H11.8149L6.98066 49.8195C6.85977 49.9397 6.69814 50 6.53137 50ZM23.6887 4.08335H17.7695C17.4179 4.08335 17.1418 4.36685 17.1418 4.72419C17.1418 5.08345 17.4179 5.3642 17.7695 5.3642H23.061V13.3204C23.061 13.6777 23.3371 13.9612 23.6887 13.9612C24.0387 13.9612 24.3163 13.6777 24.3163 13.3204V4.72391C24.3163 4.36685 24.0384 4.08335 23.6887 4.08335ZM26.722 0.640012V28.2479C26.722 28.6071 26.4459 28.8887 26.0943 28.8887H9.20307C8.85147 28.8887 8.57785 28.6071 8.57785 28.2479V0.640012C8.57785 0.281021 8.85147 0 9.20307 0H26.0943C26.4457 0 26.722 0.281021 26.722 0.640012ZM13.9868 1.30675C13.9868 1.4839 14.1279 1.62799 14.3015 1.62799H20.997C21.1678 1.62799 21.3109 1.4839 21.3109 1.30675C21.3109 1.12959 21.1678 0.985502 20.997 0.985502H14.3015C14.1282 0.985502 13.9868 1.12987 13.9868 1.30675ZM18.4341 27.4442C18.4341 26.9979 18.0773 26.6389 17.6445 26.6389C17.2074 26.6389 16.859 26.9979 16.859 27.4442C16.859 27.8922 17.2074 28.2476 17.6445 28.2476C18.0773 28.2476 18.4341 27.8922 18.4341 27.4442ZM25.4664 2.76558H9.83234V25.9429H25.4664V2.76558Z" fill="#8B2119"/>
</svg>
